<svg width="23" height="23" viewBox="0 0 23 23" fill="none" xmlns="http://www.w3.org/2000/svg">
<rect width="23" height="23" rx="11.5" fill="white"/>
<path fill-rule="evenodd" clip-rule="evenodd" d="M11.493 4.18182C11.9532 4.18182 12.3946 4.36466 12.7201 4.69011C13.0455 5.01556 13.2284 5.45697 13.2284 5.91723V11.9911C13.2284 12.4514 13.0455 12.8928 12.7201 13.2183C12.3946 13.5437 11.9532 13.7265 11.493 13.7265C11.0327 13.7265 10.5913 13.5437 10.2659 13.2183C9.94041 12.8928 9.75757 12.4514 9.75757 11.9911V5.91723C9.75757 5.45697 9.94041 5.01556 10.2659 4.69011C10.5913 4.36466 11.0327 4.18182 11.493 4.18182Z" fill="#F7710A"/>
<path d="M13.2284 16.9971C13.2284 17.4574 13.0455 17.8988 12.7201 18.2242C12.3946 18.5497 11.9532 18.7325 11.493 18.7325C11.0327 18.7325 10.5913 18.5497 10.2659 18.2242C9.94041 17.8988 9.75757 17.4574 9.75757 16.9971C9.75757 16.5369 9.94041 16.0955 10.2659 15.77C10.5913 15.4446 11.0327 15.2617 11.493 15.2617C11.9532 15.2617 12.3946 15.4446 12.7201 15.77C13.0455 16.0955 13.2284 16.5369 13.2284 16.9971Z" fill="#F7710A"/>
</svg>
