<svg width="41" height="40" viewBox="0 0 41 40" fill="none" xmlns="http://www.w3.org/2000/svg">
<path d="M12.8125 11.25H33.7159H12.8125ZM12.8125 20H33.7159H12.8125ZM12.8125 28.75H33.7159H12.8125Z" fill="currentColor"/>
<path d="M12.8125 11.25H33.7159M12.8125 20H33.7159M12.8125 28.75H33.7159" stroke="currentColor" stroke-width="3.5" stroke-linecap="round" stroke-linejoin="round"/>
<path d="M6.40556 13.6501C7.76418 13.6501 8.86556 12.5756 8.86556 11.2501C8.86556 9.92461 7.76418 8.8501 6.40556 8.8501C5.04694 8.8501 3.94556 9.92461 3.94556 11.2501C3.94556 12.5756 5.04694 13.6501 6.40556 13.6501Z" fill="currentColor" stroke="currentColor" stroke-linecap="round" stroke-linejoin="round"/>
<path d="M6.40556 22.4001C7.76418 22.4001 8.86556 21.3256 8.86556 20.0001C8.86556 18.6746 7.76418 17.6001 6.40556 17.6001C5.04694 17.6001 3.94556 18.6746 3.94556 20.0001C3.94556 21.3256 5.04694 22.4001 6.40556 22.4001Z" fill="currentColor" stroke="currentColor" stroke-linecap="round" stroke-linejoin="round"/>
<path d="M6.40556 31.1501C7.76418 31.1501 8.86556 30.0756 8.86556 28.7501C8.86556 27.4246 7.76418 26.3501 6.40556 26.3501C5.04694 26.3501 3.94556 27.4246 3.94556 28.7501C3.94556 30.0756 5.04694 31.1501 6.40556 31.1501Z" fill="currentColor" stroke="currentColor" stroke-linecap="round" stroke-linejoin="round"/>
</svg>
