<svg width="39" height="39" viewBox="0 0 39 39" fill="none" xmlns="http://www.w3.org/2000/svg">
<path fill-rule="evenodd" clip-rule="evenodd" d="M13.8547 5.04409C14.3547 4.87756 14.8953 4.87756 15.3953 5.04409L24.375 8.03734L32.9696 5.17246C33.2871 5.06666 33.6252 5.0378 33.9561 5.08827C34.2869 5.13874 34.601 5.26709 34.8726 5.46276C35.1441 5.65842 35.3652 5.91579 35.5178 6.21367C35.6703 6.51155 35.7499 6.84142 35.75 7.17609V28.6651C35.75 29.1767 35.5889 29.6754 35.2897 30.0904C34.9904 30.5054 34.5682 30.8158 34.0828 30.9775L25.1453 33.9561C24.6448 34.1235 24.1052 34.1235 23.6047 33.9561L14.625 30.9628L6.03038 33.8277C5.71287 33.9335 5.37477 33.9624 5.04392 33.9119C4.71308 33.8614 4.39896 33.7331 4.12744 33.5374C3.85593 33.3418 3.63478 33.0844 3.48223 32.7865C3.32968 32.4886 3.25008 32.1588 3.25 31.8241V10.3351C3.25005 9.82344 3.4111 9.32478 3.71033 8.90975C4.00957 8.49473 4.43182 8.18439 4.91725 8.02271L13.8547 5.04409ZM13 28.0801V8.75396L6.5 10.9217V30.2462L13 28.0785V28.0801ZM16.25 8.75559V28.0801L22.75 30.2478V10.9201L16.25 8.75234V8.75559ZM26 10.9233V30.2478L32.5 28.0801V8.75396L26 10.9233Z" fill="currentColor"/>
</svg>
