<svg width="40" height="39" viewBox="0 0 40 39" fill="none" xmlns="http://www.w3.org/2000/svg">
<path d="M6.66675 29.25C6.66675 27.5261 7.36913 25.8728 8.61937 24.6538C9.86961 23.4348 11.5653 22.75 13.3334 22.75H26.6667C28.4349 22.75 30.1305 23.4348 31.3808 24.6538C32.631 25.8728 33.3334 27.5261 33.3334 29.25C33.3334 30.112 32.9822 30.9386 32.3571 31.5481C31.732 32.1576 30.8841 32.5 30.0001 32.5H10.0001C9.11603 32.5 8.26818 32.1576 7.64306 31.5481C7.01794 30.9386 6.66675 30.112 6.66675 29.25Z" stroke="currentColor" stroke-width="3" stroke-linejoin="round"/>
<path d="M20 16.25C22.7614 16.25 25 14.0674 25 11.375C25 8.68261 22.7614 6.5 20 6.5C17.2386 6.5 15 8.68261 15 11.375C15 14.0674 17.2386 16.25 20 16.25Z" stroke="currentColor" stroke-width="3"/>
</svg>
